<?xml version="1.0" encoding="UTF-8" standalone="no"?>
<svg
   xmlns:dc="http://purl.org/dc/elements/1.1/"
   xmlns:cc="http://creativecommons.org/ns#"
   xmlns:rdf="http://www.w3.org/1999/02/22-rdf-syntax-ns#"
   xmlns:svg="http://www.w3.org/2000/svg"
   xmlns="http://www.w3.org/2000/svg"
   xmlns:sodipodi="http://sodipodi.sourceforge.net/DTD/sodipodi-0.dtd"
   xmlns:inkscape="http://www.inkscape.org/namespaces/inkscape"
   width="315.2703pt"
   height="244.0989pt"
   viewBox="0 0 315.2703 244.0989"
   version="1.1"
   id="svg39"
   sodipodi:docname="Elite-Dangerous-Detailed.svg"
   inkscape:version="1.0.2 (e86c8708, 2021-01-15)">
  <metadata
     id="metadata45">
    <rdf:RDF>
      <cc:Work
         rdf:about="">
        <dc:format>image/svg+xml</dc:format>
        <dc:type
           rdf:resource="http://purl.org/dc/dcmitype/StillImage" />
      </cc:Work>
    </rdf:RDF>
  </metadata>
  <defs
     id="defs43" />
  <sodipodi:namedview
     pagecolor="#ffffff"
     bordercolor="#666666"
     borderopacity="1"
     objecttolerance="10"
     gridtolerance="10"
     guidetolerance="10"
     inkscape:pageopacity="0"
     inkscape:pageshadow="2"
     inkscape:window-width="1440"
     inkscape:window-height="847"
     id="namedview41"
     showgrid="false"
     inkscape:zoom="1.5129875"
     inkscape:cx="210.1802"
     inkscape:cy="162.7326"
     inkscape:window-x="0"
     inkscape:window-y="25"
     inkscape:window-maximized="1"
     inkscape:current-layer="svg39" />
  <g
     id="surface1"
     style="fill:#ffffff">
    <path
       style="stroke:none;fill-rule:evenodd;fill:#ffffff;fill-opacity:1"
       d="M 157.636719 127.121094 C 157.753906 123.492188 160.949219 115.179688 161.378906 108.859375 C 162.863281 107.925781 164.34375 106.988281 165.828125 106.050781 C 165.15625 96.871094 164.082031 87.882813 162.785156 79.015625 C 161.300781 85.53125 161.691406 93.449219 161.144531 100.667969 C 159.976563 100.003906 158.804688 99.339844 157.636719 98.675781 C 156.464844 99.339844 155.292969 100.003906 154.125 100.667969 C 153.578125 93.449219 153.96875 85.53125 152.484375 79.015625 C 151.1875 87.882813 150.117188 96.871094 149.441406 106.050781 C 150.925781 106.988281 152.40625 107.925781 153.890625 108.859375 C 154.320313 115.179688 157.519531 123.492188 157.636719 127.121094 "
       id="path10" />
    <path
       style="stroke:none;fill-rule:evenodd;fill:#ffffff;fill-opacity:1"
       d="M 157.679688 127.257813 L 165.890625 121.386719 L 180.222656 121.386719 L 176.441406 118.300781 L 166.488281 117.15625 L 166.488281 114.867188 C 166.488281 112.660156 170.828125 114.914063 173.109375 113.96875 C 171.167969 112.824219 169.535156 110.433594 167.285156 110.535156 C 165.410156 110.621094 163.945313 112.695313 163.207031 114.417969 Z M 157.679688 127.257813 "
       id="path12" />
    <path
       style="stroke:none;fill-rule:evenodd;fill:#ffffff;fill-opacity:1"
       d="M 157.589844 127.257813 L 149.378906 121.386719 L 135.046875 121.386719 L 138.828125 118.300781 L 148.78125 117.15625 L 148.78125 114.867188 C 148.78125 112.660156 144.441406 114.914063 142.164063 113.96875 C 144.101563 112.824219 145.734375 110.433594 147.984375 110.535156 C 149.859375 110.621094 151.324219 112.695313 152.066406 114.417969 Z M 157.589844 127.257813 "
       id="path14" />
    <path
       style="stroke:none;fill-rule:evenodd;fill:#ffffff;fill-opacity:1"
       d="M 157.636719 158.738281 L 163.324219 132.761719 L 169.667969 126.34375 L 157.636719 130.449219 L 145.601563 126.34375 L 151.949219 132.761719 Z M 157.636719 158.738281 "
       id="path16" />
    <path
       style="stroke:none;fill-rule:evenodd;fill:#ffffff;fill-opacity:1"
       d="M 158.605469 169.898438 L 166.71875 135.183594 L 173.292969 127.070313 C 180.378906 126.589844 186.699219 127.65625 192.707031 124.296875 C 195.414063 122.78125 196.710938 117.878906 195.683594 114.949219 C 194.140625 110.554688 191.128906 107.28125 186.75 103.859375 L 186.953125 95.4375 L 245.597656 48.808594 C 245.292969 59.589844 243.742188 72.390625 235.429688 79.003906 L 215.8125 94.613281 C 212.136719 97.539063 210.113281 104.976563 213.246094 108.480469 L 221.050781 117.210938 C 222.421875 118.742188 222.390625 122.140625 220.746094 123.371094 Z M 158.605469 169.898438 "
       id="path18" />
    <path
       style="stroke:none;fill-rule:evenodd;fill:#ffffff;fill-opacity:1"
       d="M 156.664063 169.898438 L 148.550781 135.183594 L 141.976563 127.070313 C 134.890625 126.589844 128.574219 127.65625 122.566406 124.296875 C 119.855469 122.78125 118.558594 117.878906 119.585938 114.949219 C 121.128906 110.554688 124.140625 107.28125 128.523438 103.859375 L 128.316406 95.4375 L 69.671875 48.808594 C 69.980469 59.589844 71.527344 72.390625 79.839844 79.003906 L 99.457031 94.613281 C 103.132813 97.539063 105.15625 104.976563 102.023438 108.480469 L 94.21875 117.210938 C 92.847656 118.742188 92.878906 122.140625 94.527344 123.371094 Z M 156.664063 169.898438 "
       id="path20" />
    <path
       style="stroke:none;fill-rule:evenodd;fill:#ffffff;fill-opacity:1"
       d="M 235.90625 82.613281 L 236.042969 93.730469 C 236.066406 95.644531 235.300781 97.828125 233.804688 99.019531 L 219.09375 110.746094 L 215.433594 105.933594 C 213.808594 103.792969 214.339844 99.597656 216.449219 97.933594 Z M 235.90625 82.613281 "
       id="path22" />
    <path
       style="stroke:none;fill-rule:evenodd;fill:#ffffff;fill-opacity:1"
       d="M 79.363281 82.613281 L 79.226563 93.730469 C 79.203125 95.644531 79.96875 97.828125 81.464844 99.019531 L 96.175781 110.746094 L 99.835938 105.933594 C 101.464844 103.792969 100.929688 99.597656 98.820313 97.933594 Z M 79.363281 82.613281 "
       id="path24" />
    <path
       style="stroke:none;fill-rule:evenodd;fill:#ffffff;fill-opacity:1"
       d="M 248.539063 51.847656 L 314.257813 1 C 314.546875 13.664063 309.433594 27.386719 299.867188 35.25 L 276.171875 54.726563 L 276.074219 58.660156 L 290.945313 47.050781 C 291.007813 57.667969 287.382813 68.992188 279.625 75.738281 L 256.886719 95.5 L 256.886719 99.148438 L 269.359375 89.167969 C 270.609375 99.550781 265.632813 109.335938 258.230469 115.167969 L 204.792969 157.285156 C 201.859375 159.597656 199.410156 163.4375 199.515625 167.167969 L 199.707031 174.074219 C 199.765625 176.261719 198.433594 178.550781 196.734375 179.929688 L 173.132813 199.019531 L 160.371094 173.210938 L 223.882813 124.859375 L 225.226563 117.375 L 221.292969 112.769531 L 234.4375 102.792969 L 238.851563 94.828125 L 239.042969 79.574219 C 244.5 75.027344 248.457031 67.402344 248.539063 51.847656 "
       id="path26" />
    <path
       style="stroke:none;fill-rule:evenodd;fill:#ffffff;fill-opacity:1"
       d="M 66.730469 51.847656 L 1.011719 1 C 0.722656 13.664063 5.835938 27.386719 15.402344 35.25 L 39.097656 54.726563 L 39.195313 58.660156 L 24.324219 47.050781 C 24.261719 57.667969 27.886719 68.992188 35.644531 75.738281 L 58.382813 95.5 L 58.382813 99.148438 L 45.910156 89.167969 C 44.660156 99.550781 49.636719 109.335938 57.039063 115.167969 L 110.480469 157.285156 C 113.410156 159.597656 115.859375 163.4375 115.753906 167.167969 L 115.5625 174.074219 C 115.503906 176.261719 116.835938 178.550781 118.539063 179.929688 L 142.140625 199.019531 L 154.898438 173.210938 L 91.386719 124.859375 L 90.042969 117.375 L 93.976563 112.769531 L 80.832031 102.792969 L 76.421875 94.828125 L 76.226563 79.574219 C 70.769531 75.027344 66.8125 67.402344 66.730469 51.847656 "
       id="path28" />
    <path
       style="stroke:none;fill-rule:evenodd;fill:#ffffff;fill-opacity:1"
       d="M 236.011719 136.722656 L 205.765625 160.308594 C 203.9375 161.734375 202.4375 164.097656 202.4375 166.414063 L 202.4375 175.570313 L 231.941406 151.800781 C 233.972656 150.164063 235.644531 147.5625 235.734375 144.957031 Z M 236.011719 136.722656 "
       id="path30" />
    <path
       style="stroke:none;fill-rule:evenodd;fill:#ffffff;fill-opacity:1"
       d="M 79.257813 136.722656 L 109.503906 160.308594 C 111.332031 161.734375 112.832031 164.097656 112.832031 166.414063 L 112.832031 175.570313 L 83.328125 151.800781 C 81.296875 150.164063 79.625 147.5625 79.535156 144.957031 Z M 79.257813 136.722656 "
       id="path32" />
    <path
       style="stroke:none;fill-rule:evenodd;fill:#ffffff;fill-opacity:1"
       d="M 157.636719 189.121094 L 153.898438 193.777344 L 150.492188 210.894531 L 142.679688 204.910156 L 157.636719 176.074219 L 172.589844 204.910156 L 164.78125 210.894531 L 161.371094 193.777344 Z M 157.636719 189.121094 "
       id="path34" />
    <path
       style="stroke:none;fill-rule:evenodd;fill:#ffffff;fill-opacity:1"
       d="M 152.738281 239.980469 C 152.085938 238.488281 152.332031 235.121094 152.902344 233.960938 C 153.46875 232.800781 154.066406 232.324219 154.890625 231.75 C 152.027344 229.445313 149.316406 227.023438 150.660156 220.5625 L 155.894531 195.4375 L 157.636719 192.613281 L 159.378906 195.4375 L 164.609375 220.5625 C 165.953125 227.023438 163.242188 229.445313 160.378906 231.75 C 161.203125 232.324219 161.800781 232.800781 162.371094 233.960938 C 162.9375 235.121094 163.1875 238.488281 162.53125 239.980469 C 160.710938 244.136719 154.558594 244.136719 152.738281 239.980469 "
       id="path36" />
  </g>
</svg>
